HIERARCHY
ROOT Hips
{
	OFFSET 0.000000 0.000000 0.000000
	CHANNELS 6 Xposition Yposition Zposition Zrotation Yrotation Xrotation 
	JOINT LHipJoint
	{
		OFFSET 0.000000 0.000000 0.000000
		CHANNELS 3 Zrotation Yrotation Xrotation
		JOINT LeftUpLeg
		{
			OFFSET 1.363060 -1.794630 0.839290
			CHANNELS 3 Zrotation Yrotation Xrotation
			JOINT LeftLeg
			{
				OFFSET 2.448110 -6.726130 0.000000
				CHANNELS 3 Zrotation Yrotation Xrotation
				JOINT LeftFoot
				{
					OFFSET 2.562200 -7.039590 0.000000
					CHANNELS 3 Zrotation Yrotation Xrotation
					JOINT LeftToeBase
					{
						OFFSET 0.157640 -0.433110 2.322550
						CHANNELS 3 Zrotation Yrotation Xrotation
						End Site
						{
							OFFSET 0.000000 0.000000 0.000000
						}
					}
				}
			}
		}
	}
	JOINT RHipJoint
	{
		OFFSET 0.000000 0.000000 0.000000
		CHANNELS 3 Zrotation Yrotation Xrotation
		JOINT RightUpLeg
		{
			OFFSET -1.305520 -1.794630 0.839290
			CHANNELS 3 Zrotation Yrotation Xrotation
			JOINT RightLeg
			{
				OFFSET -2.542530 -6.985550 0.000000
				CHANNELS 3 Zrotation Yrotation Xrotation
				JOINT RightFoot
				{
					OFFSET -2.568260 -7.056230 0.000000
					CHANNELS 3 Zrotation Yrotation Xrotation
					JOINT RightToeBase
					{
						OFFSET -0.164730 -0.452590 2.363150
						CHANNELS 3 Zrotation Yrotation Xrotation
						End Site
						{
							OFFSET 0.000000 0.000000 0.000000
						}
					}
				}
			}
		}
	}
	JOINT LowerBack
	{
		OFFSET 0.000000 0.000000 0.000000
		CHANNELS 3 Zrotation Yrotation Xrotation
		JOINT Spine
		{
			OFFSET 0.028270 2.035590 -0.193380
			CHANNELS 3 Zrotation Yrotation Xrotation
			JOINT Spine1
			{
				OFFSET 0.056720 2.048850 -0.042750
				CHANNELS 3 Zrotation Yrotation Xrotation
				JOINT Neck
				{
					OFFSET 0.000000 0.000000 0.000000
					CHANNELS 3 Zrotation Yrotation Xrotation
					JOINT Neck1
					{
						OFFSET -0.054170 1.746240 0.172020
						CHANNELS 3 Zrotation Yrotation Xrotation
						JOINT Head
						{
							OFFSET 0.104070 1.761360 -0.123970
							CHANNELS 3 Zrotation Yrotation Xrotation
							End Site
							{
								OFFSET 0.000000 0.000000 0.000000
							}
						}
					}
				}
				JOINT LeftShoulder
				{
					OFFSET 0.000000 0.000000 0.000000
					CHANNELS 3 Zrotation Yrotation Xrotation
					JOINT LeftArm
					{
						OFFSET 3.362410 1.200890 -0.311210
						CHANNELS 3 Zrotation Yrotation Xrotation
						JOINT LeftForeArm
						{
							OFFSET 4.983000 -0.000000 -0.000000
							CHANNELS 3 Zrotation Yrotation Xrotation
							JOINT LeftHand
							{
								OFFSET 3.483560 -0.000000 -0.000000
								CHANNELS 3 Zrotation Yrotation Xrotation
								JOINT LeftFingerBase
								{
									OFFSET 0.000000 0.000000 0.000000
									CHANNELS 3 Zrotation Yrotation Xrotation
									JOINT LeftHandIndex1
									{
										OFFSET 0.715260 -0.000000 -0.000000
										CHANNELS 3 Zrotation Yrotation Xrotation
										End Site
										{
											OFFSET 0.000000 0.000000 0.000000
										}
									}
								}
								JOINT LThumb
								{
									OFFSET 0.000000 0.000000 0.000000
									CHANNELS 3 Zrotation Yrotation Xrotation
									End Site
									{
										OFFSET 0.000000 0.000000 0.000000
									}
								}
							}
						}
					}
				}
				JOINT RightShoulder
				{
					OFFSET 0.000000 0.000000 0.000000
					CHANNELS 3 Zrotation Yrotation Xrotation
					JOINT RightArm
					{
						OFFSET -3.136600 1.374050 -0.404650
						CHANNELS 3 Zrotation Yrotation Xrotation
						JOINT RightForeArm
						{
							OFFSET -5.241900 -0.000000 -0.000000
							CHANNELS 3 Zrotation Yrotation Xrotation
							JOINT RightHand
							{
								OFFSET -3.444170 -0.000000 -0.000000
								CHANNELS 3 Zrotation Yrotation Xrotation
								JOINT RightFingerBase
								{
									OFFSET 0.000000 0.000000 0.000000
									CHANNELS 3 Zrotation Yrotation Xrotation
									JOINT RightHandIndex1
									{
										OFFSET -0.622530 -0.000000 -0.000000
										CHANNELS 3 Zrotation Yrotation Xrotation
										End Site
										{
											OFFSET 0.000000 0.000000 0.000000
										}
									}
								}
								JOINT RThumb
								{
									OFFSET 0.000000 0.000000 0.000000
									CHANNELS 3 Zrotation Yrotation Xrotation
									End Site
									{
										OFFSET 0.000000 0.000000 0.000000
									}
								}
							}
						}
					}
				}
			}
		}
	}
}
MOTION
Frames: 6
Frame Time: 0.008333
1.143778 16.997689 -22.663949 2.240140 3.651813 1.036449 -2.007759 3.430067 4.362328 -22.435876 -11.369704 -20.697704 4.411870 12.166437 41.041994 1.338363 -6.444859 -7.408220 0.282200 -3.416600 -9.440800 -2.585915 -4.380645 4.099704 16.373689 -1.349834 -24.202272 -27.308319 -16.832109 112.623535 -1.295860 -17.699402 26.582731 -1.563900 -7.891500 22.384900 -0.467744 0.113314 9.673192 -6.609790 0.517703 21.166709 0.344963 1.019270 -15.312294 -1.618883 -0.291198 -5.507141 3.575768 -0.465287 -12.548223 0.820900 -0.453000 -4.033700 -4.083301 5.199384 -2.448720 -78.175929 -1.343082 53.839734 127.052432 -60.158957 -92.264824 0.750277 -0.675309 -30.464664 38.865430 10.887867 9.541700 -7.125000 0.000000 0.000000 10.633000 45.127800 0.033900 5.686525 -4.479191 -4.028144 77.759250 -15.352853 45.638565 -65.031042 56.627702 -46.140336 1.625645 1.114651 6.364814 -43.393787 28.081066 -23.333700 7.125000 0.000000 0.000000 -8.836700 3.784300 -9.511500
1.143160 16.986561 -22.490566 2.170877 3.052977 1.315625 -2.019578 3.430352 4.380159 -22.409889 -10.865828 -20.480477 4.401232 12.159634 41.007038 1.354712 -6.200936 -7.961626 0.353798 -3.791324 -10.493879 -2.629707 -4.325621 4.106155 16.418753 -0.188129 -25.757646 -27.560875 -16.821457 113.442608 -1.126496 -17.117905 25.407597 -1.219917 -6.872197 19.389094 -0.414548 0.314592 9.573370 -6.728355 0.795527 21.037067 0.285484 1.135730 -15.297536 -1.350236 -0.309579 -5.299293 3.380707 -0.491647 -12.854981 0.733620 -0.472262 -4.157830 -4.088112 5.170465 -2.419281 -78.132380 -2.547392 54.140064 127.383775 -60.023223 -92.510255 0.756823 -0.668087 -30.235686 38.772718 10.697700 9.358735 -7.125000 0.000000 0.000000 10.517937 44.870785 -0.032756 5.677676 -4.465317 -4.059065 78.050633 -16.037773 44.928969 -64.853043 56.599743 -46.015011 1.628712 1.139952 6.369005 -42.623702 27.737220 -22.547013 7.125000 0.000000 0.000000 -8.481082 3.087033 -9.029145
1.142541 16.975432 -22.317184 2.101614 2.454142 1.594802 -2.031397 3.430637 4.397989 -22.383901 -10.361951 -20.263249 4.390594 12.152831 40.972081 1.371060 -5.957014 -8.515033 0.425397 -4.166048 -11.546958 -2.673499 -4.270598 4.112606 16.463817 0.973577 -27.313019 -27.813432 -16.810805 114.261681 -0.957133 -16.536408 24.232464 -0.875933 -5.852893 16.393287 -0.361352 0.515869 9.473547 -6.846921 1.073350 20.907425 0.226005 1.252189 -15.282778 -1.081588 -0.327959 -5.091445 3.185645 -0.518007 -13.161740 0.646340 -0.491523 -4.281959 -4.092922 5.141547 -2.389843 -78.088832 -3.751701 54.440393 127.715117 -59.887490 -92.755686 0.763369 -0.660865 -30.006709 38.680005 10.507534 9.175770 -7.125000 0.000000 0.000000 10.402874 44.613771 -0.099413 5.668828 -4.451444 -4.089985 78.342015 -16.722693 44.219373 -64.675044 56.571784 -45.889686 1.631780 1.165254 6.373196 -41.853618 27.393375 -21.760327 7.125000 0.000000 0.000000 -8.125464 2.389767 -8.546790
1.141441 16.962508 -22.146610 2.066568 1.549887 2.043647 -2.042105 3.402136 4.392564 -22.427900 -9.665458 -20.266743 4.367856 12.141508 40.899648 1.380010 -5.687472 -9.022676 0.472593 -4.408587 -12.229142 -2.731463 -4.206755 4.128850 16.453263 2.635243 -29.109342 -28.071441 -16.810020 115.074267 -0.834571 -16.101823 23.392609 -0.632185 -5.064921 14.098251 -0.441126 0.806672 9.214813 -6.964518 1.429995 20.675668 0.238465 1.423284 -15.219193 -0.857769 -0.308159 -4.854623 2.974297 -0.494117 -13.486494 0.560935 -0.482985 -4.410625 -4.108995 5.116072 -2.360220 -78.084497 -4.847207 54.630559 128.109987 -59.730074 -93.045349 0.776600 -0.656859 -29.769631 38.458382 9.987193 8.713944 -7.125000 0.000000 0.000000 10.144112 43.939869 -0.255392 5.667930 -4.432391 -4.114201 78.532401 -17.337564 43.662370 -64.523406 56.544080 -45.763313 1.630915 1.182701 6.275446 -41.525348 27.147480 -21.347130 7.125000 0.000000 0.000000 -7.998967 1.969873 -8.349892
1.139703 16.947206 -21.979758 2.076857 0.240952 2.717303 -2.051342 3.335494 4.356323 -22.564630 -8.713747 -20.562693 4.329083 12.124197 40.777558 1.379156 -5.383984 -9.469684 0.487458 -4.475983 -12.419889 -2.808205 -4.131227 4.158070 16.369015 4.959357 -31.224923 -28.336674 -16.822308 115.878258 -0.774022 -15.861896 22.997000 -0.521246 -4.583461 12.731735 -0.697085 1.216094 8.745521 -7.080833 1.891077 20.308608 0.346244 1.666769 -15.090910 -0.693346 -0.237771 -4.579410 2.741368 -0.403645 -13.835094 0.478013 -0.437614 -4.545300 -4.139988 5.095162 -2.330354 -78.132119 -5.798547 54.674759 128.589031 -59.543930 -93.393619 0.798689 -0.657115 -29.521822 38.065952 9.029373 7.882625 -7.125000 0.000000 0.000000 9.694949 42.713592 -0.529722 5.677569 -4.406478 -4.129531 78.588965 -17.859620 43.307554 -64.406696 56.516713 -45.635550 1.624838 1.189741 6.042627 -41.782484 27.031371 -21.428806 7.125000 0.000000 0.000000 -8.176056 1.917497 -8.531222
1.137964 16.931904 -21.812905 2.087147 -1.067983 3.390959 -2.060580 3.268851 4.320082 -22.701360 -7.762037 -20.858643 4.290311 12.106885 40.655468 1.378301 -5.080497 -9.916691 0.502322 -4.543379 -12.610636 -2.884948 -4.055699 4.187289 16.284767 7.283472 -33.340504 -28.601907 -16.834596 116.682249 -0.713472 -15.621969 22.601390 -0.410308 -4.102001 11.365218 -0.953045 1.625517 8.276229 -7.197148 2.352160 19.941548 0.454023 1.910253 -14.962628 -0.528923 -0.167382 -4.304197 2.508440 -0.313174 -14.183694 0.395091 -0.392242 -4.679974 -4.170982 5.074252 -2.300488 -78.179741 -6.749887 54.718958 129.068075 -59.357785 -93.741889 0.820777 -0.657371 -29.274013 37.673523 8.071552 7.051306 -7.125000 0.000000 0.000000 9.245786 41.487315 -0.804053 5.687207 -4.380564 -4.144861 78.645530 -18.381676 42.952738 -64.289986 56.489346 -45.507788 1.618762 1.196782 5.809807 -42.039619 26.915261 -21.510483 7.125000 0.000000 0.000000 -8.353146 1.865121 -8.712553
